<svg xmlns="http://www.w3.org/2000/svg" width="49" height="40" viewBox="0 0 49 40" fill="none">
  <g clip-path="url(#clip0_2987_14636)">
    <path fill-rule="evenodd" clip-rule="evenodd" d="M46.416 38.6673C46.416 38.6673 49.4993 38.6673 49.4993 35.5562C49.4993 32.4451 46.416 23.1118 34.0827 23.1118C21.7493 23.1118 18.666 32.4451 18.666 35.5562C18.666 38.6673 21.7493 38.6673 21.7493 38.6673H46.416ZM21.8172 35.5562H46.3482C46.3626 35.5545 46.377 35.5524 46.3913 35.55L46.416 35.5438C46.4098 34.7224 45.9011 32.3393 44.0727 30.1926C42.3707 28.1798 39.3798 26.2229 34.0827 26.2229C28.7886 26.2229 25.7978 28.1829 24.0927 30.1926C22.2643 32.3393 21.7524 34.7255 21.7493 35.5438C21.7719 35.5482 21.7945 35.5523 21.8172 35.5562ZM34.0827 16.8895C35.7182 16.8895 37.2867 16.234 38.4432 15.0671C39.5996 13.9002 40.2493 12.3176 40.2493 10.6673C40.2493 9.01708 39.5996 7.43443 38.4432 6.26754C37.2867 5.10065 35.7182 4.4451 34.0827 4.4451C32.4472 4.4451 30.8787 5.10065 29.7222 6.26754C28.5657 7.43443 27.916 9.01708 27.916 10.6673C27.916 12.3176 28.5657 13.9002 29.7222 15.0671C30.8787 16.234 32.4472 16.8895 34.0827 16.8895ZM43.3327 10.6673C43.3327 11.893 43.0934 13.1067 42.6286 14.239C42.1637 15.3714 41.4824 16.4003 40.6234 17.267C39.7645 18.1337 38.7448 18.8211 37.6225 19.2902C36.5002 19.7592 35.2974 20.0007 34.0827 20.0007C32.868 20.0007 31.6651 19.7592 30.5429 19.2902C29.4206 18.8211 28.4009 18.1337 27.5419 17.267C26.683 16.4003 26.0017 15.3714 25.5368 14.239C25.0719 13.1067 24.8327 11.893 24.8327 10.6673C24.8327 8.19196 25.8072 5.81799 27.5419 4.06765C29.2767 2.31732 31.6294 1.33398 34.0827 1.33398C36.5359 1.33398 38.8887 2.31732 40.6234 4.06765C42.3581 5.81799 43.3327 8.19196 43.3327 10.6673ZM21.552 23.9829C20.3186 23.591 19.0472 23.3334 17.7595 23.2144C17.036 23.145 16.3095 23.1107 15.5827 23.1118C3.24935 23.1118 0.166016 32.4451 0.166016 35.5562C0.166016 37.6313 1.19277 38.6673 3.24935 38.6673H16.2487C15.7916 37.6961 15.5636 36.6312 15.5827 35.5562C15.5827 32.414 16.7451 29.2033 18.9435 26.5215C19.6928 25.6069 20.5653 24.7513 21.552 23.9829ZM15.336 26.2229C10.193 26.2851 7.2731 28.214 5.59268 30.1926C3.75193 32.3518 3.24935 34.7442 3.24935 35.5562H12.4993C12.4993 32.3051 13.4953 29.0664 15.336 26.2229ZM4.79102 12.2229C4.79102 9.74752 5.76557 7.37355 7.50028 5.62321C9.23499 3.87287 11.5878 2.88954 14.041 2.88954C16.4943 2.88954 18.847 3.87287 20.5818 5.62321C22.3165 7.37355 23.291 9.74752 23.291 12.2229C23.291 14.6982 22.3165 17.0722 20.5818 18.8225C18.847 20.5729 16.4943 21.5562 14.041 21.5562C11.5878 21.5562 9.23499 20.5729 7.50028 18.8225C5.76557 17.0722 4.79102 14.6982 4.79102 12.2229ZM14.041 6.00065C12.4055 6.00065 10.837 6.6562 9.68052 7.8231C8.52405 8.98999 7.87435 10.5726 7.87435 12.2229C7.87435 13.8731 8.52405 15.4558 9.68052 16.6226C10.837 17.7895 12.4055 18.4451 14.041 18.4451C15.6765 18.4451 17.245 17.7895 18.4015 16.6226C19.558 15.4558 20.2077 13.8731 20.2077 12.2229C20.2077 10.5726 19.558 8.98999 18.4015 7.8231C17.245 6.6562 15.6765 6.00065 14.041 6.00065Z" fill="#E77C40"/>
  </g>
  <defs>
    <clipPath id="clip0_2987_14636">
      <rect width="48" height="39.5295" fill="white" transform="translate(0.5)"/>
    </clipPath>
  </defs>
</svg>