<svg width="284" height="20" viewBox="0 0 284 20" fill="none" xmlns="http://www.w3.org/2000/svg">
<rect x="0.5" y="9" width="120" height="2" fill="#ECECEC"/>
<path d="M139.258 7.524C138.596 6.83333 137.779 6.488 136.808 6.488C135.838 6.488 135.016 6.83333 134.344 7.524C133.682 8.21467 133.35 9.05467 133.35 10.044C133.35 11.024 133.682 11.8593 134.344 12.55C135.016 13.2407 135.838 13.586 136.808 13.586C137.779 13.586 138.596 13.2407 139.258 12.55C139.93 11.8593 140.266 11.024 140.266 10.044C140.266 9.05467 139.93 8.21467 139.258 7.524ZM140.476 13.656C139.487 14.6173 138.264 15.098 136.808 15.098C135.352 15.098 134.13 14.6173 133.14 13.656C132.151 12.6853 131.656 11.4813 131.656 10.044C131.656 8.59733 132.151 7.39333 133.14 6.432C134.13 5.46133 135.352 4.976 136.808 4.976C138.264 4.976 139.487 5.46133 140.476 6.432C141.466 7.39333 141.96 8.59733 141.96 10.044C141.96 11.4813 141.466 12.6853 140.476 13.656ZM152.056 8.392C152.056 10.0067 151.351 11.024 149.942 11.444L152.504 15H150.404L148.066 11.71H145.896V15H144.244V5.214H147.884C149.377 5.214 150.446 5.466 151.09 5.97C151.734 6.474 152.056 7.28133 152.056 8.392ZM147.954 10.212C148.887 10.212 149.522 10.0673 149.858 9.778C150.194 9.48867 150.362 9.02667 150.362 8.392C150.362 7.748 150.189 7.30933 149.844 7.076C149.499 6.83333 148.883 6.712 147.996 6.712H145.896V10.212H147.954Z" fill="#737373"/>
<rect x="163.5" y="9" width="120" height="2" fill="#ECECEC"/>
</svg>
